# xmcd
#
# Track frame offsets:
#	150
#	13122
#	30647
#	47915
#	61905
#	88322
#	108422
#	127062
#	145755
#	168312
#	189700
#	206317
#	225875
#	240487
#
# Disc length: 3396 seconds
#
# Revision: 1
# Processed by: cddbd v1.5.2PL0 Copyright (c) Steve Scherf et al.
# Submitted via: audiograbber 1.83.01
#
DISCID=b90d420e
DTITLE=Al Edwards - Why
DYEAR=1991
DGENRE=Gospel
TTITLE0=On Revival Day
TTITLE1=My Lord What A Morning
TTITLE2=You Never Walk Alone
TTITLE3=Nobody Knows You When You're Down And Out
TTITLE4=Without A Song
TTITLE5=Precious Lord
TTITLE6=Strange Fruit
TTITLE7=He's All And All
TTITLE8=What A Wonderful Day
TTITLE9=Water Boy
TTITLE10=Side Blues
TTITLE11=I'm On My Way
TTITLE12=Why
TTITLE13=Oh Happy Day
EXTD=Koch CD-Code Nr. 38
EXTT0=
EXTT1=
EXTT2=
EXTT3=
EXTT4=
EXTT5=
EXTT6=
EXTT7=
EXTT8=
EXTT9=
EXTT10=
EXTT11=
EXTT12=
EXTT13=
PLAYORDER=
